<svg width="600" height="172" viewBox="0 0 600 172" fill="none" xmlns="http://www.w3.org/2000/svg">
<path d="M282.699 58.5112C282.699 98.5662 260.776 118.017 210.171 118.017C159.402 118.017 137.644 98.731 137.644 58.5112V9.22548C137.644 4.67368 141.334 0.983716 145.886 0.983716H172.259C176.811 0.983716 180.501 4.67368 180.501 9.22547V58.5112C180.501 70.8738 184.951 81.753 210.171 81.753C235.391 81.753 239.842 70.709 239.842 58.5112V9.22548C239.842 4.67368 243.532 0.983716 248.083 0.983716H274.457C279.009 0.983716 282.699 4.67368 282.699 9.22547V58.5112Z" fill="white"/>
<path d="M313.187 60.4888C313.187 20.4339 335.11 0.983307 385.714 0.983307C436.484 0.983307 458.242 20.269 458.242 60.4888V109.775C458.242 114.326 454.552 118.016 450 118.016H423.626C419.075 118.016 415.385 114.326 415.385 109.775V60.4888C415.385 48.1262 410.934 37.247 385.714 37.247C360.495 37.247 356.044 48.291 356.044 60.4888V109.775C356.044 114.326 352.354 118.016 347.802 118.016H321.429C316.877 118.016 313.187 114.326 313.187 109.775V60.4888Z" fill="white"/>
<path d="M121.978 29.0057C121.978 33.5575 118.288 37.2475 113.736 37.2475H49.0385C45.6246 37.2475 42.8571 40.0149 42.8571 43.4288C42.8571 46.8426 45.6246 49.6101 49.0385 49.6101H103.846C108.398 49.6101 112.088 53.3001 112.088 57.8519V77.6321C112.088 82.1839 108.398 85.8738 103.846 85.8738H51.0989C46.5471 85.8738 42.8571 89.5638 42.8571 94.1156V108.127C42.8571 112.678 39.1672 116.368 34.6154 116.368H8.24177C3.68997 116.368 0 112.678 0 108.127V9.22548C0 4.67368 3.68996 0.983716 8.24176 0.983716H113.736C118.288 0.983716 121.978 4.67368 121.978 9.22547V29.0057Z" fill="white"/>
<path d="M478.022 88.3464C478.022 83.7946 481.712 80.1046 486.264 80.1046H550.962C554.375 80.1046 557.143 77.3371 557.143 73.9233C557.143 70.5094 554.375 67.742 550.962 67.742H496.154C491.602 67.742 487.912 64.052 487.912 59.5002V39.72C487.912 35.1682 491.602 31.4782 496.154 31.4782H548.901C553.453 31.4782 557.143 27.7883 557.143 23.2365V9.22547C557.143 4.67368 560.833 0.983708 565.385 0.983708H591.758C596.31 0.983708 600 4.67367 600 9.22547V108.127C600 112.678 596.31 116.368 591.758 116.368H486.264C481.712 116.368 478.022 112.678 478.022 108.127V88.3464Z" fill="white"/>
<path d="M75.6794 150.61H9.63597V171.017H0V146.747L6.22632 141.135H77.9031L75.6794 150.61Z" fill="white"/>
<path d="M160.35 165.332L153.679 170.944H88.6735L82.4472 165.332V146.747L88.6735 141.135H153.679L160.35 146.747V165.332ZM92.0831 161.469H150.714V150.61H92.0831V161.469Z" fill="white"/>
<path d="M175.978 128.017V141.135H240.243L246.469 146.747V165.332L240.243 170.944H166.342V128.017H175.978ZM236.833 150.61H175.978V161.469H236.833V150.61Z" fill="white"/>
<path d="M331.035 165.332L324.364 170.944H259.359L253.132 165.332V146.747L259.359 141.135H324.364L331.035 146.747V165.332ZM262.768 161.469H321.4V150.61H262.768V161.469Z" fill="white"/>
<path d="M411.128 171.017H344.195L337.968 165.405V128.017H347.604V141.135H388.149L385.185 150.61H347.604V161.542H411.128V171.017Z" fill="white"/>
<path d="M416.941 170.944V141.135H426.577V170.944H416.941ZM416.941 136.034V128.017H426.577V136.034H416.941Z" fill="white"/>
<path d="M512.234 150.61H443.226V161.469H513.716L512.234 170.944H433.59V146.747L439.816 141.135H513.716L512.234 150.61Z" fill="white"/>
<path d="M593.774 152.359L600 156.44V165.988L593.774 170.871H519.873L521.356 162.125H591.105V159.647H526.1L519.873 156.222V145.946L526.1 141.062H600L598.518 149.808H528.768V152.359H593.774Z" fill="white"/>
</svg>
