<svg width="24" height="24" viewBox="0 0 24 24" fill="none" xmlns="http://www.w3.org/2000/svg">
<path fill-rule="evenodd" clip-rule="evenodd" d="M4 0C1.79086 0 0 1.79086 0 4V20C0 22.2091 1.79086 24 4 24H20C22.2091 24 24 22.2091 24 20V4C24 1.79086 22.2091 0 20 0H4ZM20.5 12.25C20.5 7.69375 16.8063 4 12.25 4C7.69375 4 4 7.69375 4 12.25C4 15.913 6.38838 19.0169 9.69138 20.0942C9.69063 20.0909 9.68913 20.0864 9.68913 20.0864C9.68913 20.0864 10.2456 19.8254 10.234 19.3596C10.2269 19.0855 10.2276 18.6164 10.2295 18.172C9.90363 18.2159 9.47088 18.268 9.259 18.268C7.81726 18.268 7.44557 17.4982 7.12909 16.8427C7.01703 16.6107 6.9119 16.3929 6.76863 16.2287C6.64582 16.088 6.49312 15.9888 6.3662 15.9063C6.22454 15.8142 6.115 15.743 6.115 15.6584C6.115 15.4979 6.25225 15.3572 6.53313 15.3572C6.95988 15.3572 7.41738 15.6595 7.6405 16.0195C7.867 16.3844 8.48463 17.1737 9.2965 17.1737C9.607 17.1737 9.99138 17.0642 10.2524 16.9757C10.3349 16.3495 10.7118 15.9235 10.7118 15.9235C10.7118 15.9235 6.97038 15.9655 6.97038 11.9736C6.97038 10.4331 7.7755 9.63175 7.7755 9.63175C7.7755 9.63175 7.3525 7.98737 7.92175 7.28987C8.56 7.22087 9.70263 7.89962 10.1905 8.21687C10.1905 8.21687 10.9638 7.89962 12.25 7.89962C13.5363 7.89962 14.3095 8.21687 14.3095 8.21687C14.7974 7.89962 15.9404 7.22087 16.5783 7.28987C17.1475 7.98737 16.7245 9.63175 16.7245 9.63175C16.7245 9.63175 17.5296 10.4335 17.5296 11.9736C17.5296 15.9655 13.7883 15.9235 13.7883 15.9235C13.7883 15.9235 14.2653 16.4575 14.2653 17.2112C14.2653 17.3355 14.2663 17.5203 14.2675 17.733C14.2706 18.2723 14.2747 18.9913 14.2653 19.3589C14.2533 19.8246 14.8101 20.0856 14.8101 20.0856C14.8101 20.0856 14.8096 20.0872 14.8091 20.0891C14.8087 20.0905 14.8082 20.0922 14.8079 20.0935C18.1116 19.0169 20.5 15.913 20.5 12.25Z" fill="white"/>
</svg>
