<svg width="24" height="24" viewBox="0 0 24 24" fill="none" xmlns="http://www.w3.org/2000/svg">
<path fill-rule="evenodd" clip-rule="evenodd" d="M4 0C1.79086 0 0 1.79086 0 4V20C0 22.2091 1.79086 24 4 24H20C22.2091 24 24 22.2091 24 20V4C24 1.79086 22.2091 0 20 0H4ZM5 9.13636C5 6.855 6.855 5 9.13636 5H14.8636C17.145 5 19 6.855 19 9.13636V14.8636C19 17.145 17.145 19 14.8636 19H9.13636C6.855 19 5 17.145 5 14.8636V9.13636ZM16.4545 8.18182C16.4545 7.83182 16.1682 7.54545 15.8182 7.54545C15.4682 7.54545 15.1818 7.83182 15.1818 8.18182C15.1818 8.53182 15.4682 8.81818 15.8182 8.81818C16.1682 8.81818 16.4545 8.53182 16.4545 8.18182ZM15.5 12C15.5 10.0686 13.9314 8.5 12 8.5C10.0686 8.5 8.5 10.0686 8.5 12C8.5 13.9314 10.0686 15.5 12 15.5C13.9314 15.5 15.5 13.9314 15.5 12ZM9.13636 12C9.13636 10.4218 10.4218 9.13636 12 9.13636C13.5782 9.13636 14.8636 10.4218 14.8636 12C14.8636 13.5782 13.5782 14.8636 12 14.8636C10.4218 14.8636 9.13636 13.5782 9.13636 12Z" fill="white"/>
</svg>
