<svg width="24" height="24" viewBox="0 0 24 24" fill="none" xmlns="http://www.w3.org/2000/svg">
<path d="M21.1429 0H2.85714C1.28 0 0 1.28 0 2.85714V21.1429C0 22.72 1.28 24 2.85714 24H21.1429C22.72 24 24 22.72 24 21.1429V2.85714C24 1.28 22.72 0 21.1429 0ZM6.42857 9.14286C6.98086 9.14286 7.42857 9.59057 7.42857 10.1429V19C7.42857 19.5523 6.98086 20 6.42857 20H5C4.44771 20 4 19.5523 4 19V10.1429C4 9.59057 4.44772 9.14286 5 9.14286H6.42857ZM4 5.98286C4 5.18286 4.68571 4.57143 5.71429 4.57143C6.74286 4.57143 7.38857 5.18286 7.42857 5.98286C7.42857 6.78286 6.78857 7.42857 5.71429 7.42857C4.68571 7.42857 4 6.78286 4 5.98286ZM20 19C20 19.5523 19.5523 20 19 20H17.5714C17.0191 20 16.5714 19.5532 16.5714 19.001C16.5714 17.4458 16.5714 14.5916 16.5714 14.2857C16.5714 13.1429 16 12 14.5714 11.9771H14.5257C13.1429 11.9771 12.5714 13.1543 12.5714 14.2857C12.5714 14.6606 12.5714 17.4644 12.5714 19.0005C12.5714 19.5528 12.1237 20 11.5714 20H10.1429C9.59057 20 9.14286 19.5523 9.14286 19V10.1429C9.14286 9.59057 9.59057 9.14286 10.1429 9.14286H12.2046C12.4072 9.14286 12.5714 9.3071 12.5714 9.50971V9.50971C12.5714 9.8618 13.0956 10.077 13.3887 9.88181C13.9415 9.5136 14.7753 9.14286 15.8914 9.14286C18.16 9.14286 20 10.7029 20 13.8629V19Z" fill="white"/>
</svg>
