<svg width="24" height="24" viewBox="0 0 24 24" fill="none" xmlns="http://www.w3.org/2000/svg">
<path fill-rule="evenodd" clip-rule="evenodd" d="M4 0C1.79086 0 0 1.79086 0 4V20C0 22.2091 1.79086 24 4 24H20C22.2091 24 24 22.2091 24 20V4C24 1.79086 22.2091 0 20 0H4ZM9.98893 13.2196C10.2857 12.8757 10.3135 12.3751 10.0565 12.0005L6.32864 6.56564C5.87347 5.90206 6.3486 5 7.15329 5H8.41728C8.74695 5 9.05543 5.16247 9.24191 5.43432L11.8144 9.18447C12.1854 9.7252 12.9676 9.7686 13.396 9.27222L16.9513 5.15348C17.0354 5.05603 17.1578 5 17.2865 5V5C17.6656 5 17.8695 5.44526 17.6218 5.73223L13.57 10.4264C13.2732 10.7702 13.2455 11.2709 13.5024 11.6455L17.4734 17.4343C17.9286 18.0979 17.4535 19 16.6488 19H15.3849C15.0552 19 14.7467 18.8375 14.5602 18.5656L11.7452 14.4616C11.3743 13.9209 10.592 13.8775 10.1635 14.3739L6.30332 18.8464C6.21914 18.9439 6.09668 19 5.96784 19V19C5.58853 19 5.38453 18.5545 5.63236 18.2673L9.98893 13.2196Z" fill="white"/>
</svg>
